#!OML:ASF H:\LiuWeirdWalks\Patient Classification 1\Patient 1\Session 1\male.ASF
:FULLY-SPECIFIED
:DEGREES
1016
root 0.745898 17.989 14.7207 3.22838 4.93275 17.5702
lowerback 11.8879 -1.05328 10.592
upperback 1.95156 0.61022 11.6178
thorax -4.66892 0.24564 6.41744
lowerneck -14.5624 0.242638 5.81598
upperneck 12.8783 2.57587 -22.0723
head 6.77116 -0.259284 -8.08587
rclavicle 1.74931e-014 2.8625e-014
rhumerus -29.8068 -29.4525 -17.5004
rradius 35.5742
rwrist -6.74577
rhand -21.409 -0.690199
rfingers 7.12502
rthumb 4.9794 -30.6117
lclavicle 1.74931e-014 2.8625e-014
lhumerus -30.8676 34.1012 16.2591
lradius 44.8425
lwrist 3.93067
lhand -17.5285 -1.88236
lfingers 7.12502
lthumb 8.72537 27.9173
rfemur -11.54 6.49194 -1.41439
rtibia 39.5158
rfoot -18.5886 -26.877
rtoes -2.38982
lfemur -14.8099 4.1467 -25.5419
ltibia 48.2863
lfoot -0.58674 0.808417
ltoes -15.3307
1017
root 0.758468 17.997 14.7491 3.32785 4.83131 17.4667
lowerback 11.9642 -1.01031 10.6453
upperback 1.98572 0.683257 11.6446
thorax -4.67694 0.280608 6.40729
lowerneck -14.5442 0.239986 5.81367
upperneck 12.7808 2.55004 -22.0387
head 6.73245 -0.263325 -8.07046
rclavicle -7.95139e-015 -8.26944e-014
rhumerus -29.8761 -29.4752 -17.4494
rradius 35.5507
rwrist -6.77656
rhand -21.4158 -0.724635
rfingers 7.12502
rthumb 4.97291 -30.6463
lclavicle -7.95139e-015 -8.26944e-014
lhumerus -30.9696 34.1494 16.3175
lradius 44.8525
lwrist 3.95344
lhand -17.624 -1.92293
lfingers 7.12502
lthumb 8.63316 27.8805
rfemur -11.4574 6.6384 -1.32109
rtibia 39.2536
rfoot -18.5468 -26.9535
rtoes -2.33406
lfemur -15.1759 4.47783 -25.7095
ltibia 48.0848
lfoot -1.37496 1.01591
ltoes -15.7228
1018
root 0.771361 18.005 14.778 3.43222 4.72351 17.347
lowerback 12.0346 -0.982526 10.6973
upperback 2.00413 0.737464 11.668
thorax -4.69799 0.305895 6.39743
lowerneck -14.4502 0.246485 5.83517
upperneck 12.6642 2.53072 -22.0178
head 6.67514 -0.258767 -8.0608
rclavicle 3.33958e-014 -9.54166e-015
rhumerus -29.9141 -29.4808 -17.4407
rradius 35.5156
rwrist -6.76758
rhand -21.3886 -0.70498
rfingers 7.12502
rthumb 4.99912 -30.626
lclavicle 3.33958e-014 -9.54166e-015
lhumerus -31.1627 34.1342 16.2976
lradius 44.9223
lwrist 4.02065
lhand -17.722 -1.91631
lfingers 7.12502
lthumb 8.53866 27.891
rfemur -11.381 6.78423 -1.21275
rtibia 38.988
rfoot -18.5069 -27.0268
rtoes -2.28665
lfemur -15.5344 4.8163 -25.882
ltibia 47.7642
lfoot -2.14684 1.21543
ltoes -16.2322
1019
root 0.785427 18.0124 14.8082 3.5388 4.61932 17.2377
lowerback 12.0925 -0.971532 10.7371
upperback 2.01044 0.766982 11.6787
thorax -4.72422 0.318918 6.3841
lowerneck -14.3101 0.264921 5.88018
upperneck 12.5421 2.5246 -22.0103
head 6.61013 -0.244797 -8.05784
rclavicle 0 -4.77083e-014
rhumerus -29.923 -29.4391 -17.4857
rradius 35.4925
rwrist -6.78624
rhand -21.3679 -0.722618
rfingers 7.12502
rthumb 5.01911 -30.6432
lclavicle 0 -4.77083e-014
lhumerus -31.431 34.0439 16.2133
lradius 45.0405
lwrist 4.17545
lhand -17.8385 -1.84944
lfingers 7.12502
lthumb 8.42624 27.9625
rfemur -11.2952 6.8995 -1.12571
rtibia 38.72
rfoot -18.4766 -27.0745
rtoes -2.25133
lfemur -15.8708 5.14574 -26.0913
ltibia 47.325
lfoot -2.88361 1.41104
ltoes -16.7688
1020
root 0.800469 18.0195 14.8392 3.65118 4.53221 17.1219
lowerback 12.138 -0.97287 10.7845
upperback 2.01618 0.778843 11.6839
thorax -4.74332 0.323281 6.36295
lowerneck -14.175 0.291132 5.94194
upperneck 12.4121 2.52659 -22.0148
head 6.54537 -0.226862 -8.06143
rclavicle -1.43125e-014 9.85972e-014
rhumerus -29.9057 -29.4238 -17.5548
rradius 35.4555
rwrist -6.79027
rhand -21.3294 -0.711776
rfingers 7.12502
rthumb 5.05628 -30.6315
lclavicle -1.43125e-014 9.85972e-014
lhumerus -31.7102 33.9634 16.0854
lradius 45.1401
lwrist 4.26691
lhand -17.9055 -1.76772
lfingers 7.12502
lthumb 8.36151 28.0468
rfemur -11.202 6.97462 -1.03904
rtibia 38.4481
rfoot -18.4557 -27.0996
rtoes -2.22034
lfemur -16.1962 5.45443 -26.3156
ltibia 46.7751
lfoot -3.58858 1.59975
ltoes -17.3519
1021
root 0.816681 18.0257 14.8708 3.77424 4.45798 17.0154
lowerback 12.1621 -0.975637 10.8368
upperback 2.01235 0.786301 11.6769
thorax -4.76037 0.32521 6.3257
lowerneck -13.996 0.306867 5.99199
upperneck 12.2729 2.51395 -22.0128
head 6.4672 -0.21324 -8.06057
rclavicle 6.36111e-015 -1.04958e-013
rhumerus -29.9006 -29.4182 -17.6199
rradius 35.417
rwrist -6.80266
rhand -21.2916 -0.708174
rfingers 7.12502
rthumb 5.09279 -30.627
lclavicle 6.36111e-015 -1.04958e-013
lhumerus -31.9789 33.8606 15.9523
lradius 45.2388
lwrist 4.40277
lhand -17.9574 -1.68896
lfingers 7.12502
lthumb 8.31143 28.1275
rfemur -11.1116 6.99363 -0.975603
rtibia 38.1779
rfoot -18.442 -27.0865
rtoes -2.20529
lfemur -16.5132 5.74374 -26.572
ltibia 46.1206
lfoot -4.26358 1.78446
ltoes -17.9448
1022
root 0.833265 18.0315 14.9029 3.89955 4.39146 16.8854
lowerback 12.1797 -0.989351 10.8893
upperback 2.05521 0.770605 11.6725
thorax -4.72228 0.317458 6.29344
lowerneck -13.9783 0.365705 6.0918
upperneck 12.1313 2.55595 -22.0404
head 6.42797 -0.181705 -8.07816
rclavicle 7.95139e-015 -3.49861e-014
rhumerus -29.8116 -29.4867 -17.7653
rradius 35.3854
rwrist -6.84621
rhand -21.2668 -0.742994
rfingers 7.12502
rthumb 5.11673 -30.6612
lclavicle 7.95139e-015 -3.49861e-014
lhumerus -32.2223 33.8712 15.7749
lradius 45.2614
lwrist 4.50928
lhand -17.9892 -1.59118
lfingers 7.12502
lthumb 8.28072 28.2265
rfemur -11.0226 6.98275 -0.890371
rtibia 37.9109
rfoot -18.4334 -27.0554
rtoes -2.1998
lfemur -16.8206 6.02243 -26.8174
ltibia 45.3716
lfoot -4.90219 1.96378
ltoes -18.4873
